<?xml version="1.0" encoding="utf-8"?>
<!-- Generator: Adobe Illustrator 23.0.1, SVG Export Plug-In . SVG Version: 6.00 Build 0)  -->
<svg version="1.1" id="a761666e-317c-445e-96b4-8ff633270475"
	 xmlns="http://www.w3.org/2000/svg" xmlns:xlink="http://www.w3.org/1999/xlink" x="0px" y="0px" viewBox="0 0 1021.8 750.3"
	 style="enable-background:new 0 0 1021.8 750.3;" xml:space="preserve">
<style type="text/css">
	.st0{fill:#F2F2F2;}
	.st1{fill:none;stroke:#2F2E41;stroke-width:2;stroke-miterlimit:10;}
	.st2{fill:#3F3D56;}
	.st3{fill:#3027E4;}
	.st4{opacity:0.3;fill:#3027E4;enable-background:new    ;}
	.st5{opacity:0.3;fill:none;stroke:#3027E4;stroke-width:2;stroke-miterlimit:10;enable-background:new    ;}
	.st6{fill:#2F2E41;}
	.st7{fill:#A0616A;}
	.st8{fill:#D0CDE1;}
</style>
<g>
	<title>landing page</title>
	<ellipse class="st0" cx="496.8" cy="620.5" rx="152" ry="10"/>
	<ellipse class="st0" cx="239.8" cy="657.5" rx="71" ry="4.7"/>
	<ellipse class="st0" cx="798.8" cy="597.5" rx="152" ry="10"/>
	<line class="st1" x1="6.8" y1="581.5" x2="1021.8" y2="581.5"/>
	<rect x="183.3" y="88" class="st2" width="730" height="493"/>
	<line class="st1" x1="183.3" y1="124.1" x2="913.3" y2="124.1"/>
	<circle class="st3" cx="205.8" cy="106" r="9"/>
	<circle class="st3" cx="232.8" cy="106.5" r="9"/>
	<circle class="st3" cx="259.8" cy="107" r="9"/>
	<rect x="228.8" y="157.5" class="st4" width="616" height="120"/>
	<line class="st5" x1="228.8" y1="277.5" x2="844.8" y2="157.5"/>
	<line class="st5" x1="844.8" y1="277.5" x2="228.8" y2="157.5"/>
	<rect x="228.8" y="353.5" class="st4" width="147" height="193"/>
	<rect x="697.8" y="353.5" class="st4" width="147" height="193"/>
	<rect x="463.3" y="353.5" class="st4" width="147" height="193"/>
	<line class="st5" x1="228.8" y1="353.5" x2="375.8" y2="546.5"/>
	<line class="st5" x1="375.8" y1="353.5" x2="228.8" y2="546.5"/>
	<line class="st5" x1="463.8" y1="353.5" x2="610.8" y2="546.5"/>
	<line class="st5" x1="610.8" y1="353.5" x2="463.8" y2="546.5"/>
	<line class="st5" x1="697.8" y1="353.5" x2="844.8" y2="546.5"/>
	<line class="st5" x1="844.8" y1="353.5" x2="697.8" y2="546.5"/>
	<rect x="310.8" y="157.5" class="st3" width="616" height="120"/>
	<rect x="725.8" y="399.5" class="st3" width="147" height="193"/>
	<rect x="747.3" y="425" class="st2" width="104" height="12"/>
	<rect x="747.3" y="451" class="st2" width="104" height="12"/>
	<rect x="747.3" y="477" class="st2" width="104" height="12"/>
	<rect x="747.3" y="503" class="st2" width="104" height="12"/>
	<rect x="747.3" y="529" class="st2" width="104" height="12"/>
	<rect x="747.3" y="555" class="st2" width="104" height="12"/>
	<rect x="264.8" y="379.5" class="st3" width="147" height="193"/>
	<rect x="286.3" y="444" class="st2" width="104" height="12"/>
	<rect x="286.3" y="470" class="st2" width="104" height="12"/>
	<rect x="286.3" y="496" class="st2" width="104" height="12"/>
	<path class="st2" d="M648.6,227.9c0,22.5-13.4,30.3-29.8,30.3c-0.4,0-0.8,0-1.1,0c-0.8,0-1.5-0.1-2.3-0.1
		c-14.9-1.1-26.4-9.3-26.4-30.2c0-21.6,27.6-48.9,29.7-50.9l0,0c0.1-0.1,0.1-0.1,0.1-0.1S648.6,205.4,648.6,227.9z"/>
	<path class="st3" d="M617.7,254.8l10.9-15.2l-10.9,16.9l0,1.8c-0.8,0-1.5-0.1-2.3-0.1l1.2-22.5l0-0.2l0,0l0.1-2.1l-11-17l11,15.4
		l0,0.5l0.9-17l-9.4-17.5l9.5,14.5l0.9-35.2l0-0.1v0.1l-0.2,27.8l9.3-11l-9.4,13.4l-0.2,15.2l8.7-14.6l-8.8,16.8L618,233l12.7-20.3
		L618,236L617.7,254.8z"/>
	<circle class="st6" cx="82.2" cy="251.2" r="23.4"/>
	<path class="st7" d="M69.9,266.8c0,0,0.4,14.5-1.1,14.8s19.4,6,19.4,6l2.1-19.8L69.9,266.8z"/>
	<path class="st7" d="M234.3,390.3c0,0,15.5,0,15.9-1.8s3.5,14.5,3.5,14.5l-6.4,2.1c0,0-12-5.3-13.1-5.3S234.3,390.3,234.3,390.3z"
		/>
	<path class="st6" d="M251.2,396.6c0,0-2.8-9.5-6.4-9.9c0,0,12-7.8,12.3-10.2s4.6-8.8,6.4-6.7s1.8,35.6-1.4,39.2s-17.3-5-17.3-5
		S253.7,400.1,251.2,396.6z"/>
	<polygon class="st7" points="59.7,531.7 56.8,546.9 69.9,549 69.9,531.7 	"/>
	<path class="st6" d="M59.7,545.1c0,0-2.1-6.7-3.5-5.6s-3.5,7.8-3.2,9.5s2.8,15.5,1.8,18s5.3,15.2,13.4,14.1s7.4-8.1,7.4-8.1
		l-2.8-10.9l-1.1-17.3C71.7,544.8,62.5,543.4,59.7,545.1z"/>
	<circle class="st6" cx="74" cy="226.5" r="9.7"/>
	<path class="st6" d="M61.1,221.3c0-5,3.7-9.1,8.7-9.6c-0.3,0-0.7-0.1-1-0.1c-5.4,0-9.7,4.3-9.7,9.7c0,5.4,4.3,9.7,9.7,9.7
		c0.3,0,0.7,0,1-0.1C64.9,230.4,61.1,226.2,61.1,221.3z"/>
	<circle class="st7" cx="82.2" cy="261.9" r="14.8"/>
	<path class="st6" d="M53,364.9c0,0,0.7,17.6,3.5,26.8s13,74.5,10.9,79.4s-13,59.6-10.5,62.7S71,536,71,536l15.8-66.3
		c0,0-3.1-73.1,23-74.8s68.8-2.8,68.8-2.8s27.5,8.1,39.9,7.8s19.4,3.2,19.4,3.2l2.1-14.5l-54.7-12c0,0-50.1-17.3-77.6-12.7
		S53,364.9,53,364.9z"/>
	<path class="st8" d="M72.7,277c0,0-4.2-2.5-5.3,0c-1.1,2.5-8.5,4.6-11.3,2.5c-2.8-2.1-9.9,0.7-9.9,0.7l-7.8,22.9
		c0,0,3.9,19.8,7.4,30.7c3.5,10.9,4.9,33.5,3.5,35.6s28.2,10.6,42.7,5.3s17.6-11.3,17.6-11.3s-15.9-22.6-10.6-33.2
		c5.3-10.6,1.1-22.6,1.1-22.6l2.1-12l-12-6.7c0,0-0.7-6.4-3.5-6.4S72.7,277,72.7,277z"/>
	<path class="st8" d="M97.1,296.1h5.3c3,2.8,4.3,6.9,3.5,10.9c-1.4,6.7-7.8,28.9-7.8,28.9l-5.3-13.8L97.1,296.1z"/>
	<path class="st7" d="M112.3,352.7c0,0,10.6,11.4,2.8,17.4s-9.7-13.8-9.7-13.8L112.3,352.7z"/>
	<path class="st8" d="M97.1,328.9l2.5,9.9l4.2,7.8c0,0,14.5,9.5,14.5,13.1c0,0-6.4-8.1-14.5,0l-7.2-17.5L97.1,328.9z"/>
	<ellipse class="st6" cx="85" cy="246.2" rx="16.2" ry="9.7"/>
	<path class="st7" d="M53,247c0,0,11.3-6.4,15.9-1.8s-13.8,11.6-13.8,11.6L53,247z"/>
	<path class="st8" d="M48.7,282l-2.5-1.8c0,0-2.8-4.2-5.3-2.8c-2.5,1.4-16.9-5.3-16.9-5.3s5.3,2.5,5.3-1.8s0.7-3.5,4.2-3.5
		s3.5,1.8,4.9-0.7c1.4-2.5,0.7-3.9,3.2-2.5c2.5,1.4,5.3,0.4,6-0.7s13.4-2.8,13.4-2.8s-4.9-14.5-6-15.5s-28.2,10.9-28.2,10.9
		S-7.4,265,1.5,276c8.8,10.9,40.6,27.5,40.6,27.5L48.7,282z"/>
	<rect x="430.8" y="427.5" class="st3" width="147" height="193"/>
	<rect x="471.3" y="458" class="st2" width="66" height="66"/>
	<rect x="446.3" y="538" class="st2" width="116" height="8"/>
	<rect x="446.3" y="560" class="st2" width="116" height="8"/>
	<rect x="446.3" y="582" class="st2" width="116" height="8"/>
	<path class="st3" d="M262.6,637c0,14.6-8.7,19.7-19.4,19.7c-0.2,0-0.5,0-0.7,0c-0.5,0-1,0-1.5-0.1c-9.7-0.7-17.1-6-17.1-19.6
		c0-14,17.9-31.7,19.3-33.1l0,0c0.1-0.1,0.1-0.1,0.1-0.1S262.6,622.4,262.6,637z"/>
	<path class="st2" d="M242.6,654.4l7.1-9.9l-7.1,11l0,1.1c-0.5,0-1,0-1.5-0.1l0.8-14.6l0-0.1l0,0l0.1-1.4l-7.1-11l7.1,10l0,0.3
		l0.6-11l-6.1-11.4l6.2,9.4l0.6-22.9l0-0.1v0.1l-0.1,18l6.1-7.1l-6.1,8.7l-0.2,9.9l5.7-9.5l-5.7,10.9l-0.1,5.5l8.2-13.2l-8.3,15.1
		L242.6,654.4z"/>
</g>
</svg>
