<svg height="170.00015mm" viewBox="0 0 169.99963 170.00015" width="169.99963mm" xmlns="http://www.w3.org/2000/svg"><g fill="#fff" transform="translate(-20.000236 2.999911)"><path d="m396.84961 26.457031a283.46457 283.46457 0 0 0 -156.86523 47.554688 94.488189 94.488189 0 0 1 37.16992 32.585941 236.22047 236.22047 0 0 1 119.69531-32.896488 236.22047 236.22047 0 0 1 236.2207 236.220708 236.22047 236.22047 0 0 1 -236.2207 236.2207 236.22047 236.22047 0 0 1 -236.21875-236.2207 236.22047 236.22047 0 0 1 8.41602-61.44532 94.488189 94.488189 0 0 1 -41.13282-27.01367 283.46457 283.46457 0 0 0 -14.52734 88.45899 283.46457 283.46457 0 0 0 283.46289 283.46484 283.46457 283.46457 0 0 0 283.46484-283.46484 283.46457 283.46457 0 0 0 -283.46484-283.464849z" stroke-width="1.144236" transform="scale(.26458333)"/><circle cx="52.5" cy="-42" r="20" stroke-width=".252453" transform="scale(1 -1)"/><path d="m104.99975 44.5a37.500108 37.500106 0 0 0 -37.49975 37.500242 37.500108 37.500106 0 0 0 37.49975 37.499758 37.500108 37.500106 0 0 0 37.50025-37.499758 37.500108 37.500106 0 0 0 -37.50025-37.500242zm0 11.718797a25.781325 25.781324 0 0 1 25.78145 25.781445 25.781325 25.781324 0 0 1 -25.78145 25.780958 25.781325 25.781324 0 0 1 -25.780955-25.780958 25.781325 25.781324 0 0 1 25.780955-25.781445z" stroke-width=".250607"/></g></svg>